<svg width="800" height="800" viewBox="0 0 24 24" fill="none" xmlns="http://www.w3.org/2000/svg"><g stroke-width="0"/><g stroke-linecap="round" stroke-linejoin="round"/><g clip-path="url(#1a1a1aa)" fill="#ff8c00"><path d="M12 0a1 1 0 0 1 1 1v4a1 1 0 1 1-2 0V1a1 1 0 0 1 1-1M4.929 3.515a1 1 0 0 0-1.414 1.414l2.828 2.828a1 1 0 0 0 1.414-1.414zM1 11a1 1 0 1 0 0 2h4a1 1 0 1 0 0-2zm17 1a1 1 0 0 1 1-1h4a1 1 0 1 1 0 2h-4a1 1 0 0 1-1-1m-.343 4.243a1 1 0 0 0-1.414 1.414l2.828 2.828a1 1 0 1 0 1.414-1.414zm-9.9 1.414a1 1 0 1 0-1.414-1.414L3.515 19.07a1 1 0 1 0 1.414 1.414zM20.485 4.929a1 1 0 0 0-1.414-1.414l-2.828 2.828a1 1 0 1 0 1.414 1.414zM13 19a1 1 0 1 0-2 0v4a1 1 0 1 0 2 0zM12 7a5 5 0 1 0 0 10 5 5 0 0 0 0-10"/></g></svg>