<?xml version="1.0" encoding="utf-8"?>
<svg version="1.2" xmlns="http://www.w3.org/2000/svg" viewBox="0 0 800 800" width="800" height="800">
  <style>
		.s0 { fill: #010000 } 
	</style>
  <path id="Path 0" fill-rule="evenodd" class="s0" d="m376.35 14.01c11.84-0.1 21.54 0.72 30.42 2.56 7.17 1.49 18.25 4.73 24.63 7.2 6.37 2.47 15.31 6.95 19.87 9.95 4.55 3 13.29 9.7 19.42 14.87 6.13 5.18 15.44 14.9 20.69 21.6 5.25 6.69 12.15 13.94 15.34 16.1 3.19 2.16 10.68 6.39 16.66 9.4 5.97 3 15.42 8.45 21 12.11 5.58 3.66 14.76 11.23 20.41 16.82 6.39 6.33 11.99 13.57 14.84 19.22 2.52 4.98 6.21 15.08 8.2 22.45 1.98 7.37 4.94 20.24 6.58 28.61 2.73 14 3.56 16.02 10.51 25.48 4.15 5.64 11.72 15.75 16.82 22.45 5.1 6.7 12.4 18.7 16.23 26.67 3.82 7.96 9 20.68 11.5 28.24 3.49 10.58 4.73 17.29 5.32 28.97 0.5 9.77 0.11 18.32-1.08 23.91-1.02 4.78-3.99 12.92-6.59 18.1-3.59 7.15-7.81 12.23-17.52 21.13-7.04 6.44-15.72 13.79-19.31 16.34-3.59 2.55-10.1 5.65-14.49 6.91-4.38 1.25-14.15 3.53-21.72 5.06-9.35 1.89-23.05 3.07-42.74 3.68-18.66 0.57-34.12 0.29-43.45-0.81-7.97-0.93-19.54-2.98-36.94-7.4l0.92-13.4c0.51-7.37 1.9-15.36 3.09-17.75 1.2-2.39 7.54-12.82 14.1-23.17 6.56-10.36 15.84-25.68 20.62-34.04 4.79-8.37 13.31-24.34 18.93-35.49 5.62-11.16 12.2-25.17 14.61-31.15 3.14-7.8 5.89-12.08 9.74-15.21 2.95-2.39 7.54-6.46 10.2-9.05 4.22-4.1 4.84-5.64 4.84-11.95 0-6.12-0.67-7.92-4.34-11.59-2.39-2.39-5.82-4.43-7.61-4.52-1.79-0.1-6.52-0.07-17.74 0.32l-5.33-8.4c-2.93-4.62-10.15-13.29-16.05-19.27-5.9-5.97-14.25-12.98-18.57-15.57-4.32-2.6-10.79-5.77-14.37-7.07-3.59-1.29-11.08-2.67-16.66-3.08-6.92-0.49-12.67 0.01-18.11 1.58-4.38 1.27-11.53 4.45-15.88 7.07-4.36 2.62-10.39 8.02-13.41 12-3.02 3.99-8.25 12.75-11.64 19.48-5.23 10.42-7.22 12.92-13.39 16.82-3.98 2.52-8.06 6.3-9.05 8.4-1 2.11-1.81 5.13-1.81 6.73 0 1.59 1.3 5.5 2.9 8.69 1.59 3.18 5.01 7.14 7.6 8.78 3.94 2.51 6.23 2.87 14.12 2.22 8.14-0.67 9.96-1.37 13.4-5.17 3.33-3.66 3.99-5.69 3.99-12.35 0-6.3-0.72-8.8-3.44-11.95-1.89-2.19-5.16-4.96-7.28-6.16-2.12-1.19-3.83-3.31-3.81-4.71 0.02-1.39 2.92-7.58 6.43-13.76 3.52-6.17 8.57-13.42 11.23-16.11 2.66-2.69 9.07-6.91 14.25-9.37 7.88-3.75 11.19-4.49 20.28-4.53 7.28-0.03 13.25 0.87 18.1 2.72 3.99 1.52 10.83 5.03 15.21 7.8 4.39 2.78 12.13 9.36 17.22 14.62 5.09 5.27 11.22 12.51 13.64 16.1 2.98 4.42 4.76 9.32 5.55 15.21 0.64 4.78 2.42 12.28 3.96 16.66 2.6 7.39 2.65 8.49 0.62 15.21-1.2 3.98-5.61 14.74-9.8 23.9-4.19 9.16-13.81 28.06-21.38 42.01-7.57 13.94-16.22 29.58-19.23 34.76-3.01 5.18-9.13 14.49-13.59 20.69-4.47 6.2-8.46 11.26-8.85 11.25-0.4-0.02-4.31-1.24-8.69-2.73-4.39-1.49-10.42-3.13-13.4-3.64-3.74-0.65-6.59-2.42-9.14-5.65-2.03-2.59-9.6-15.79-16.8-29.33-7.21-13.55-15.65-28.38-18.75-32.96-4.93-7.26-5.53-9.02-4.69-13.76 0.75-4.3 0.19-6.8-2.7-11.95-2.3-4.11-6.49-8.39-11.32-11.59-4.21-2.79-10.05-8-12.97-11.59-2.92-3.58-10.48-13.51-16.8-22.06-6.32-8.56-14.14-19.31-17.37-23.91-4.82-6.85-6.07-10.04-6.93-17.76-0.59-5.18-2.02-11.37-3.19-13.76-1.16-2.39-4.07-5.49-6.46-6.88-4.29-2.51-4.45-2.48-13.39 2.26-4.98 2.64-10.03 6.5-11.23 8.57-1.82 3.17-1.88 4.71-0.36 9.68 1 3.26 3.44 7.55 5.43 9.54 2.48 2.49 5.22 3.62 8.69 3.62 2.79 0 6.87 0.91 9.06 2.01 2.19 1.1 8.88 7.78 14.86 14.85 5.99 7.06 15.18 18.38 20.43 25.15 5.25 6.77 10.74 14.6 12.21 17.38 1.9 3.62 2.69 8.33 2.75 16.43 0.08 10.33 0.41 11.61 3.7 14.21 2 1.57 6.23 3.25 9.42 3.73 3.89 0.59 7.15 2.35 9.91 5.35 2.27 2.45 8.22 11.96 13.23 21.12 5 9.17 13.25 24.35 27.56 50.82l-3.16 3.2c-1.74 1.76-3.86 4.99-4.71 7.18-0.85 2.19-1.55 7.57-1.55 11.95 0 4.39 0.98 9.93 2.18 12.32 1.19 2.39 4.48 6.14 12.44 12.31l-0.11 17.38c-0.07 9.56-0.7 23.9-1.41 31.87-0.78 8.79-2.76 18.76-5.03 25.35-2.07 5.97-3.75 12.17-3.73 13.76 0.01 1.59 1.32 5.02 2.91 7.61 1.59 2.58 5.01 5.75 7.6 7.04 3.18 1.58 6.58 2.05 10.5 1.47 3.19-0.48 8.08-2.38 10.87-4.23 4.81-3.2 5.04-3.73 4.55-10.53-0.28-3.93-1.26-8.61-2.17-10.39-0.91-1.77-4.9-5.36-8.86-7.96-6.3-4.14-7.36-5.56-8.4-11.26-0.67-3.68-0.5-16.57 0.39-29.69 1.06-15.48 2.28-24.26 3.69-26.44 1.16-1.79 4.55-4.02 7.54-4.95 2.98-0.93 7.71-2.99 15.57-7.45l12.31 3.88c6.77 2.14 15.9 4.53 20.28 5.32 4.38 0.79 21.01 1.84 36.94 2.34 19.18 0.59 34.11 0.3 44.18-0.87 8.36-0.97 22.05-3.48 30.42-5.57 11.01-2.75 19.01-3.8 28.97-3.82 10.54-0.01 14.69 0.57 17.74 2.47 2.2 1.38 5.55 5.59 7.46 9.38 1.91 3.78 4.6 10.79 5.98 15.57 1.95 6.76 2.36 12.24 1.83 24.62-0.55 12.9-1.55 18.49-5.26 29.34-2.51 7.37-6.95 18.12-9.85 23.9-2.9 5.77-8.28 15.04-11.95 20.59-3.67 5.54-10.6 14.34-15.4 19.55-4.8 5.21-10.96 12.73-13.69 16.71-2.74 3.99-6.21 10.51-7.72 14.49-1.51 3.98-4 12.13-5.54 18.11-1.54 5.97-4.47 14.44-6.51 18.83-2.04 4.38-6.48 11.55-9.87 15.93-3.38 4.38-10.01 11.41-14.71 15.62-4.71 4.2-12.56 9.74-26.35 16.97l-5.59-3.94c-3.07-2.16-7.54-4.35-9.94-4.84-3.3-0.69-6.54 0.25-13.51 3.94-9.13 4.82-9.2 4.83-17.38 2.86-4.52-1.08-12.13-3.73-16.91-5.88-4.78-2.15-13.9-7.42-20.28-11.7-6.37-4.29-15.93-12.07-21.23-17.29-6.84-6.73-10.11-11.19-11.22-15.29-0.86-3.19-1.57-8.08-1.56-10.87 0-2.79-0.49-7.29-1.1-9.99-0.81-3.63-2.82-6.07-7.62-9.27-3.58-2.38-7.68-5.71-9.11-7.39-1.42-1.67-5.25-8.26-8.51-14.63-3.25-6.38-7.22-14.85-8.81-18.83-1.59-3.99-6.41-17.68-10.71-30.42-4.3-12.75-7.81-24.97-7.79-27.16 0.01-2.19 1.33-6.92 2.92-10.5 1.6-3.59 2.9-8.8 2.9-11.59 0-3.68-1.09-6.08-3.98-8.74-2.19-2.02-4.47-3.65-5.07-3.62-0.6 0.02-3.45-2.07-6.34-4.66-2.89-2.59-6.25-6.67-7.46-9.06-1.22-2.39-6.94-18.36-12.72-35.49-5.78-17.12-12.59-36.35-15.13-42.73-2.55-6.37-6.61-15.5-9.02-20.28-2.42-4.78-9.16-16.84-14.99-26.8-5.83-9.95-12.92-20.87-15.75-24.26-3.95-4.73-6.15-6.15-9.49-6.15-2.48 0-5.87 1.39-7.91 3.25-1.96 1.8-3.92 5.06-4.35 7.25-0.6 3.1 0.19 4.94 3.57 8.33 3.67 3.67 5.47 4.34 11.59 4.34 5.31 0 8.01 0.77 10.14 2.9 1.59 1.59 5.1 6.32 7.78 10.5 2.69 4.18 7.84 13.47 11.45 20.64 3.61 7.17 8.17 16.95 10.13 21.73 1.96 4.78 6.17 15.86 9.36 24.63 3.19 8.76 9.52 26.69 14.07 39.83 8.22 23.74 8.25 23.92 5.44 26.8-1.55 1.59-3.56 4.36-4.45 6.16-0.9 1.79-1.63 5.54-1.63 8.32 0 3.68 1.29 6.51 4.7 10.31 2.59 2.88 6.83 6.14 9.42 7.25 3.49 1.48 5.59 3.96 8.12 9.6 1.88 4.19 6.53 17.06 10.32 28.61 3.8 11.56 10.45 29.15 22.66 57.22l-6.41 21.73 3.88 8.69c2.13 4.78 3.86 9.18 3.84 9.78-0.02 0.59-2.16 3.47-4.75 6.39-2.59 2.92-7.97 6.82-11.95 8.68-4.8 2.23-9.93 3.37-15.21 3.38-5.77 0.01-10.36-1.12-16.66-4.1-5.65-2.68-11.49-7.11-16.68-12.67-4.4-4.71-9.78-12.15-11.95-16.53-2.18-4.38-5.93-15.79-8.33-25.35-2.4-9.56-4.34-19.66-4.31-22.45 0.04-3.22 1.91-7.98 5.11-13.04 2.92-4.59 5.04-9.81 5.03-12.31-0.01-2.39-1.32-6.47-2.91-9.05-1.59-2.59-5.5-6.02-8.69-7.61-3.19-1.59-6.93-2.91-8.33-2.93-1.39-0.01-4.25 1.78-6.34 3.99-2.09 2.2-4.54 5.48-5.43 7.27-0.9 1.79-1.63 5.87-1.63 9.05 0 3.99 1.06 7.04 3.41 9.78 1.87 2.19 4.15 5.45 5.07 7.24 0.91 1.8 1.66 8.97 1.66 15.94 0 6.97-1.01 23.75-2.25 37.3-1.24 13.54-3.29 28.53-4.55 33.31-1.26 4.78-2.57 10.98-2.91 13.76-0.43 3.59 0.16 5.83 2.02 7.66 1.44 1.42 4.25 2.59 6.24 2.6 2 0.01 4.6-1.09 5.8-2.45q2.17-2.46 1.7-9.11c-0.26-3.67-0.56-18.4-0.68-32.74-0.11-14.34 0.26-29.17 0.83-32.95 0.71-4.69 1.74-6.88 3.22-6.88 1.5 0 2.65 2.58 3.73 8.33 0.86 4.58 2.23 10.93 3.05 14.12 0.82 3.19 3.06 8.89 4.96 12.68 1.91 3.78 7.54 11.17 12.52 16.41 5.79 6.1 11.92 10.88 17.02 13.27 5.23 2.45 11.45 3.97 18.11 4.44 8.65 0.6 11.31 0.18 18.11-2.9 4.38-1.98 10.17-5.5 12.87-7.82 2.69-2.31 6.6-7.04 8.69-10.5 3.28-5.45 4.27-6.16 7.41-5.35 1.99 0.53 5.7 2.7 8.24 4.85 2.55 2.14 11.02 9.32 18.83 15.95 7.82 6.63 18.77 14.81 24.35 18.17 5.58 3.36 13.72 7.56 18.11 9.34 4.38 1.77 11.55 3.89 15.93 4.69 4.38 0.8 9.27 2.38 10.86 3.5 2.88 2.02 2.87 2.09-0.72 9.01-2.06 3.96-11.1 14.51-21 24.5-14.5 14.63-19.19 18.42-28.25 22.82-6.1 2.97-19.75 7.51-31.14 10.36-15.65 3.91-25.09 7.36-41.29 15.11-14.31 6.83-24.69 10.78-32.59 12.39-6.92 1.42-18.89 2.39-29.7 2.43-10.65 0.03-23.17-0.89-30.41-2.24-6.78-1.26-16.88-3.83-22.46-5.71-5.57-1.88-15.35-6.12-21.72-9.43-6.38-3.3-16.1-9.44-21.6-13.63-5.51-4.19-13.49-12.19-17.73-17.76-4.25-5.58-12.05-18.29-17.34-28.25-5.28-9.96-9.9-20.06-10.26-22.45-0.36-2.39 0.76-13.47 2.47-24.63 2.31-14.98 3.33-29.93 3.92-57.22 0.51-23.48 0.18-43.26-0.9-54.32-0.93-9.56-3.05-23.9-4.7-31.86-1.65-7.97-5.56-23.61-8.68-34.77-3.13-11.15-7.34-26.47-9.36-34.04-2.49-9.32-3.95-19.37-4.51-31.14-0.56-11.74-0.23-19.98 1.02-25.35 1.01-4.38 3.39-11.39 5.28-15.57 1.89-4.19 5.23-8.94 7.42-10.56 2.19-1.62 5.45-2.92 7.25-2.89 2.42 0.03 3.94 1.62 5.94 6.2 1.48 3.39 5.02 13.66 7.86 22.82 2.85 9.16 6.21 20.24 7.47 24.62 1.26 4.38 2.29 8.95 2.29 10.14 0 1.2-2.62 5.6-5.81 9.78-3.19 4.18-5.83 9.07-5.85 10.86-0.03 1.8 1.44 5.18 3.26 7.51 1.82 2.34 6.73 5.76 10.91 7.61 6.88 3.04 7.81 4 9.76 10.23 1.18 3.79 3.48 14.71 5.1 24.27 1.62 9.56 3.39 24.88 4.9 50.7l-7.53 7.24c-4.15 3.98-7.86 8.71-8.25 10.5-0.4 1.79 0.58 6.19 2.18 9.78 1.7 3.83 4.83 7.73 7.6 9.47 3.08 1.93 6.09 2.68 8.69 2.17 2.19-0.43 6.94-3.55 10.55-6.93 3.61-3.39 6.54-7.3 6.52-8.7-0.03-1.39-1.12-4.65-2.44-7.24-1.31-2.59-3.82-6.66-5.58-9.05-1.75-2.39-3.64-5.65-4.2-7.24-0.56-1.6-1.98-14.96-3.16-29.7-1.18-14.74-3.45-32.34-5.04-39.11-2.79-11.83-2.81-12.71-0.47-22.45 1.34-5.58 2.02-11.93 1.5-14.13-0.52-2.19-4.12-7.08-8.02-10.86-5.82-5.66-7.6-8.68-10.06-17.02-1.65-5.58-5.34-17.96-8.21-27.52-2.86-9.56-6.73-22.6-8.58-28.97-1.86-6.38-4.17-19.09-5.14-28.25-1.03-9.76-1.34-21.46-0.74-28.25 0.56-6.37 2.56-16.47 4.43-22.45 1.87-5.97 5.87-14.95 8.89-19.94 3.02-4.99 10.16-13.79 15.88-19.55 5.86-5.91 15.02-13.17 21-16.64 5.84-3.39 15.83-7.89 22.2-10 6.38-2.11 12.41-4.39 13.4-5.07 1.19-0.8 1.53-3.1 0.98-6.66-0.46-2.99-2.69-12.93-4.97-22.09-2.28-9.16-4.58-20.57-5.11-25.35-0.53-4.78-0.23-14.88 0.67-22.45 0.9-7.57 2.92-18.49 4.49-24.26 1.57-5.78 5.22-15.23 8.1-21.01 2.88-5.77 8-14.41 11.38-19.19 3.38-4.78 11.33-13.58 17.65-19.56 6.33-5.97 16.36-13.78 22.3-17.35 5.93-3.57 16.33-8.37 23.1-10.67 6.77-2.3 14.92-4.68 18.1-5.3 3.19-0.62 13.62-1.19 23.18-1.26zm193.74 474.73c-1.08 3.59-3.7 7.52-6.52 9.78-2.58 2.08-9.27 5.96-14.84 8.62-5.58 2.66-16.99 7.13-25.35 9.93-8.37 2.8-21.4 6.19-28.97 7.53-13.61 2.4-13.83 2.4-19.92-0.67-3.39-1.71-7.89-3.11-10.01-3.11q-3.85-0.01-6.57 3.98c-1.49 2.19-2.71 5.29-2.71 6.88 0 1.6 1.16 4.08 2.58 5.52 1.96 1.99 3.81 2.4 7.66 1.69 2.78-0.52 13.54-2.89 23.9-5.28 10.35-2.38 25.35-6.3 33.31-8.7 7.97-2.4 21.66-7.65 30.42-11.66l15.94-7.3c21.5 2.08 21.81 2.01 25.76-2.02 2.79-2.84 4.02-5.57 3.99-8.82-0.03-2.59-1.52-6.79-3.32-9.32-1.79-2.54-5.38-5.47-7.96-6.52-2.59-1.05-5.59-1.91-6.66-1.91-1.08 0-3.52 1.21-5.44 2.69-1.91 1.48-4.29 5.39-5.29 8.69z" style="fill: rgb(220, 104, 246);"/>
</svg>