<svg version="1.2" xmlns="http://www.w3.org/2000/svg" viewBox="0 0 800 800" width="800" height="800"><g/><g/><path d="M411.75 202.25a37.55 37.55 0 0 1-12.3-26.34 37.5 37.5 0 0 1 10.22-27.21 37.49 37.49 0 0 1 53.58-.95l225 212.5a37.48 37.48 0 0 1 11.74 27.25 37.48 37.48 0 0 1-11.74 27.25l-225 212.5a37.48 37.48 0 0 1-26.63 9.68c-9.8-.38-19.06-4.59-25.8-11.72a37.5 37.5 0 0 1-10.24-26.42c.17-9.81 4.18-19.15 11.17-26.04L568.2 425H137.5c-9.95 0-19.48-3.95-26.52-10.98A37.52 37.52 0 0 1 100 387.5c0-9.95 3.95-19.48 10.98-26.52A37.52 37.52 0 0 1 137.5 350h430.7z" style="fill:#ff8c00"/></svg>