<svg version="1.2" xmlns="http://www.w3.org/2000/svg" viewBox="0 0 800 800" width="800" height="800">
	<style>
		.s0 { fill: #be9cf7;stroke: #ffffff;stroke-linecap: round;stroke-linejoin: round;stroke-width: .4 } 
	</style>
	<path id="Path 0" fill-rule="evenodd" class="s0" d="m376.54 9.01c11.99-0.09 21.83 0.73 30.83 2.6 7.27 1.51 18.5 4.8 24.96 7.29 6.47 2.51 15.52 7.05 20.15 10.09 4.61 3.04 13.48 9.84 19.69 15.08 6.21 5.24 15.65 15.1 20.97 21.9 5.33 6.78 12.32 14.12 15.55 16.31 3.23 2.2 10.84 6.47 16.89 9.53 6.06 3.04 15.64 8.57 21.29 12.27 5.65 3.72 14.96 11.38 20.69 17.05 6.47 6.43 12.14 13.76 15.05 19.49 2.55 5.05 6.28 15.28 8.3 22.76 2.01 7.47 5.02 20.53 6.66 29 2.78 14.2 3.63 16.24 10.66 25.83 4.22 5.72 11.88 15.96 17.05 22.76 5.18 6.8 12.58 18.96 16.46 27.03 3.88 8.08 9.12 20.96 11.66 28.63 3.54 10.72 4.79 17.52 5.39 29.37 0.5 9.9 0.1 18.58-1.1 24.23-1.03 4.85-4.04 13.11-6.68 18.36-3.64 7.25-7.92 12.39-17.76 21.41-7.13 6.53-15.93 13.97-19.57 16.56-3.64 2.58-10.25 5.74-14.68 7-4.44 1.28-14.35 3.59-22.03 5.14-9.47 1.93-23.36 3.12-43.32 3.73-18.91 0.57-34.59 0.3-44.05-0.82-8.07-0.94-19.81-3.01-37.44-7.5l0.94-13.59c0.51-7.47 1.92-15.56 3.12-17.98 1.21-2.43 7.64-13 14.29-23.5 6.65-10.5 16.07-26.03 20.91-34.51 4.85-8.47 13.48-24.66 19.18-35.97 5.71-11.31 12.36-25.52 14.82-31.57 3.18-7.92 5.97-12.25 9.86-15.42 3-2.42 7.65-6.55 10.36-9.18 4.27-4.15 4.9-5.72 4.9-12.11 0-6.2-0.69-8.03-4.41-11.75-2.42-2.42-5.88-4.49-7.7-4.58-1.83-0.1-6.61-0.07-17.99 0.32l-5.41-8.51c-2.96-4.69-10.27-13.48-16.27-19.53-5.97-6.07-14.44-13.16-18.82-15.79-4.38-2.63-10.93-5.86-14.57-7.16-3.64-1.31-11.23-2.72-16.88-3.13-7.02-0.5-12.85 0.01-18.36 1.6-4.43 1.29-11.69 4.52-16.11 7.16-4.4 2.66-10.53 8.14-13.58 12.18-3.05 4.04-8.37 12.92-11.79 19.75-5.32 10.55-7.33 13.1-13.58 17.05-4.04 2.54-8.17 6.37-9.18 8.51-1.01 2.13-1.84 5.2-1.84 6.82 0 1.61 1.33 5.58 2.94 8.81 1.62 3.23 5.08 7.23 7.71 8.91 3.99 2.54 6.31 2.91 14.32 2.25 8.25-0.69 10.08-1.4 13.58-5.25 3.38-3.71 4.04-5.77 4.04-12.52 0-6.39-0.74-8.93-3.48-12.12-1.91-2.21-5.24-5.03-7.39-6.24-2.14-1.2-3.88-3.36-3.86-4.77 0.03-1.41 2.97-7.69 6.52-13.95 3.57-6.25 8.69-13.61 11.38-16.34 2.7-2.72 9.21-7.01 14.45-9.5 7.99-3.79 11.33-4.54 20.56-4.58 7.38-0.03 13.43 0.88 18.35 2.76 4.04 1.52 10.98 5.09 15.42 7.91 4.43 2.81 12.29 9.47 17.46 14.82 5.15 5.33 11.36 12.67 13.82 16.31 3.02 4.48 4.83 9.44 5.62 15.42 0.65 4.84 2.45 12.45 4.02 16.89 2.63 7.48 2.67 8.6 0.62 15.41-1.2 4.04-5.68 14.95-9.93 24.23-4.24 9.28-14.01 28.46-21.67 42.59-7.67 14.14-16.45 29.99-19.5 35.24-3.04 5.24-9.25 14.68-13.77 20.97-4.54 6.28-8.58 11.42-8.98 11.4-0.39-0.01-4.37-1.26-8.81-2.77-4.43-1.5-10.55-3.16-13.58-3.69-3.79-0.66-6.68-2.45-9.26-5.72-2.06-2.63-9.73-16.01-17.04-29.74-7.3-13.73-15.86-28.76-19-33.4-4.99-7.36-5.61-9.15-4.76-13.95 0.77-4.36 0.19-6.89-2.73-12.12-2.33-4.17-6.58-8.5-11.47-11.74-4.27-2.84-10.19-8.11-13.15-11.75-2.95-3.64-10.62-13.7-17.04-22.37-6.4-8.67-14.33-19.57-17.6-24.22-4.89-6.95-6.15-10.19-7.04-18.02-0.58-5.24-2.04-11.53-3.21-13.95-1.19-2.42-4.14-5.57-6.55-6.98-4.35-2.54-4.52-2.51-13.58 2.31-5.05 2.67-10.18 6.58-11.38 8.68-1.85 3.2-1.91 4.77-0.37 9.81 1.01 3.3 3.48 7.66 5.51 9.67 2.51 2.51 5.28 3.67 8.81 3.67 2.83 0 6.96 0.91 9.17 2.03 2.22 1.13 9.01 7.9 15.07 15.05 6.08 7.17 15.39 18.64 20.72 25.51 5.31 6.87 10.88 14.78 12.36 17.62 1.94 3.67 2.73 8.44 2.79 16.65 0.08 10.47 0.41 11.76 3.76 14.41 2.01 1.58 6.32 3.28 9.55 3.78 3.95 0.59 7.24 2.37 10.04 5.42 2.31 2.48 8.34 12.13 13.41 21.41 5.08 9.28 13.43 24.68 27.94 51.51l-3.2 3.25c-1.76 1.79-3.92 5.06-4.77 7.28-0.87 2.22-1.57 7.68-1.57 12.11 0 4.44 0.99 10.06 2.2 12.49 1.2 2.42 4.55 6.22 12.61 12.48l-0.12 17.62c-0.05 9.69-0.7 24.23-1.42 32.3-0.78 8.92-2.79 19.02-5.1 25.7-2.1 6.06-3.8 12.33-3.78 13.95 0.01 1.61 1.35 5.08 2.95 7.71 1.61 2.63 5.08 5.84 7.71 7.13 3.23 1.61 6.68 2.09 10.64 1.5 3.23-0.48 8.18-2.42 11.02-4.29 4.88-3.24 5.11-3.77 4.62-10.67-0.29-3.99-1.28-8.72-2.2-10.53-0.93-1.8-4.98-5.43-8.99-8.07-6.39-4.2-7.46-5.64-8.52-11.41-0.67-3.75-0.51-16.82 0.4-30.11 1.07-15.69 2.31-24.59 3.73-26.79 1.19-1.83 4.63-4.09 7.65-5.03 3.03-0.94 7.81-3.02 15.79-7.54l12.48 3.93c6.87 2.16 16.12 4.58 20.56 5.39 4.43 0.79 21.29 1.87 37.44 2.36 19.44 0.61 34.58 0.31 44.79-0.88 8.47-0.98 22.36-3.52 30.83-5.64 11.16-2.79 19.27-3.86 29.37-3.87 10.67-0.02 14.89 0.57 17.99 2.51 2.21 1.39 5.62 5.67 7.56 9.5 1.92 3.83 4.65 10.94 6.05 15.78 1.98 6.85 2.39 12.41 1.86 24.97-0.55 13.07-1.57 18.73-5.33 29.73-2.55 7.48-7.04 18.37-9.98 24.23-2.94 5.86-8.4 15.24-12.12 20.87-3.73 5.62-10.74 14.55-15.6 19.82-4.88 5.29-11.12 12.91-13.9 16.95-2.76 4.03-6.28 10.64-7.81 14.68-1.52 4.04-4.07 12.3-5.62 18.35-1.56 6.07-4.52 14.66-6.59 19.09-2.08 4.44-6.58 11.72-10 16.16-3.44 4.43-10.15 11.57-14.92 15.82-4.78 4.26-12.73 9.89-26.71 17.21l-5.67-3.99c-3.11-2.2-7.65-4.4-10.07-4.92-3.35-0.69-6.64 0.27-13.7 4-9.26 4.9-9.33 4.9-17.63 2.9-4.58-1.1-12.29-3.79-17.13-5.96-4.85-2.17-14.1-7.52-20.56-11.86-6.46-4.34-16.15-12.24-21.53-17.52-6.93-6.83-10.24-11.35-11.36-15.51-0.88-3.23-1.6-8.19-1.59-11.01 0-2.82-0.5-7.39-1.11-10.13-0.82-3.69-2.87-6.16-7.73-9.4-3.64-2.41-7.78-5.79-9.23-7.49-1.44-1.69-5.33-8.37-8.62-14.83-3.31-6.46-7.33-15.05-8.94-19.09-1.61-4.04-6.49-17.91-10.86-30.84-4.36-12.92-7.91-25.31-7.9-27.53 0.02-2.21 1.36-7 2.97-10.64 1.62-3.65 2.94-8.93 2.94-11.75 0-3.73-1.12-6.17-4.04-8.85-2.22-2.06-4.54-3.71-5.14-3.68-0.6 0.02-3.5-2.1-6.43-4.72-2.92-2.63-6.33-6.76-7.56-9.18-1.24-2.42-7.04-18.62-12.88-35.98-5.86-17.35-12.78-36.85-15.35-43.31-2.58-6.47-6.69-15.72-9.14-20.56-2.46-4.85-9.28-17.06-15.2-27.17-5.91-10.09-13.1-21.16-15.96-24.59-4.01-4.8-6.23-6.24-9.62-6.24-2.51 0-5.95 1.41-8.02 3.3-2 1.82-3.98 5.12-4.4 7.34-0.62 3.14 0.19 5.02 3.61 8.45 3.71 3.71 5.55 4.4 11.74 4.4 5.39 0 8.13 0.78 10.28 2.94 1.62 1.61 5.17 6.4 7.89 10.64 2.73 4.25 7.96 13.66 11.61 20.93 3.66 7.27 8.27 17.18 10.27 22.02 1.98 4.85 6.25 16.08 9.48 24.97 3.23 8.88 9.65 27.06 14.26 40.38 8.34 24.06 8.37 24.24 5.52 27.16-1.57 1.62-3.61 4.42-4.52 6.24-0.9 1.82-1.64 5.61-1.64 8.45 0 3.73 1.3 6.59 4.77 10.45 2.63 2.92 6.91 6.23 9.54 7.34 3.54 1.5 5.67 4.01 8.24 9.74 1.91 4.24 6.61 17.28 10.46 29 3.84 11.72 10.6 29.56 22.98 58l-6.51 22.03 3.94 8.81c2.15 4.84 3.9 9.31 3.89 9.91-0.03 0.6-2.19 3.52-4.82 6.47-2.63 2.97-8.08 6.92-12.11 8.8-4.86 2.26-10.08 3.42-15.42 3.44-5.85 0.01-10.52-1.15-16.89-4.16-5.72-2.72-11.64-7.21-16.91-12.85-4.45-4.77-9.92-12.32-12.12-16.75-2.2-4.44-6-16.01-8.44-25.7-2.44-9.69-4.41-19.94-4.36-22.76 0.04-3.26 1.92-8.09 5.18-13.21 2.95-4.66 5.11-9.95 5.1-12.49-0.02-2.42-1.35-6.55-2.96-9.17-1.61-2.63-5.58-6.1-8.81-7.71-3.23-1.62-7.03-2.95-8.44-2.97-1.41-0.01-4.3 1.79-6.43 4.04-2.11 2.23-4.6 5.55-5.51 7.37-0.91 1.82-1.64 5.95-1.64 9.18 0 4.04 1.07 7.13 3.45 9.91 1.89 2.22 4.21 5.52 5.14 7.34 0.92 1.82 1.69 9.09 1.69 16.15 0 7.07-1.03 24.09-2.29 37.82-1.25 13.72-3.32 28.92-4.61 33.77-1.28 4.84-2.6 11.13-2.94 13.95-0.44 3.64 0.15 5.9 2.04 7.75 1.45 1.44 4.3 2.63 6.33 2.64 2.01 0 4.67-1.11 5.87-2.48q2.2-2.49 1.74-9.23c-0.27-3.72-0.58-18.65-0.7-33.19-0.11-14.54 0.25-29.57 0.84-33.41 0.72-4.75 1.76-6.97 3.26-6.97 1.51 0 2.69 2.61 3.79 8.44 0.87 4.64 2.26 11.09 3.08 14.32 0.84 3.23 3.1 9.02 5.04 12.85 1.92 3.83 7.64 11.32 12.69 16.64 5.87 6.18 12.08 11.02 17.25 13.45 5.3 2.48 11.6 4.02 18.36 4.5 8.76 0.61 11.46 0.18 18.35-2.93 4.44-2.01 10.31-5.58 13.05-7.93 2.74-2.35 6.7-7.14 8.82-10.65 3.31-5.52 4.31-6.25 7.5-5.42 2.01 0.53 5.78 2.73 8.35 4.91 2.59 2.17 11.18 9.45 19.09 16.16 7.93 6.73 19.03 15.03 24.69 18.43 5.65 3.41 13.92 7.67 18.35 9.46 4.44 1.81 11.72 3.95 16.15 4.76 4.44 0.82 9.4 2.42 11.02 3.55 2.9 2.06 2.9 2.11-0.74 9.13-2.08 4.03-11.25 14.72-21.29 24.83-14.7 14.85-19.44 18.68-28.63 23.15-6.18 2.99-20.03 7.6-31.57 10.5-15.86 3.96-25.42 7.45-41.85 15.31-14.51 6.93-25.04 10.94-33.04 12.57-7.01 1.42-19.15 2.42-30.1 2.45-10.8 0.03-23.5-0.89-30.84-2.26-6.87-1.29-17.11-3.89-22.76-5.8-5.65-1.91-15.56-6.2-22.03-9.56-6.46-3.35-16.31-9.56-21.89-13.82-5.58-4.24-13.67-12.35-17.97-18-4.3-5.65-12.22-18.53-17.58-28.63-5.36-10.09-10.03-20.34-10.4-22.76-0.36-2.43 0.77-13.66 2.52-24.96 2.33-15.19 3.37-30.34 3.96-58.01 0.51-23.8 0.18-43.86-0.91-55.06-0.95-9.69-3.1-24.23-4.76-32.31-1.67-8.07-5.64-23.93-8.81-35.24-3.17-11.3-7.44-26.82-9.48-34.5-2.53-9.45-4-19.64-4.57-31.57-0.57-11.9-0.24-20.25 1.03-25.7 1.03-4.44 3.43-11.54 5.36-15.79 1.91-4.24 5.3-9.06 7.52-10.69 2.21-1.64 5.52-2.96 7.34-2.93 2.46 0.03 3.99 1.64 6.02 6.28 1.5 3.44 5.09 13.85 7.97 23.13 2.89 9.28 6.3 20.53 7.58 24.96 1.28 4.44 2.32 9.08 2.32 10.28 0 1.2-2.66 5.67-5.89 9.91-3.25 4.25-5.92 9.19-5.93 11.01-0.03 1.83 1.45 5.25 3.3 7.61 1.84 2.38 6.81 5.85 11.06 7.71 6.97 3.08 7.91 4.07 9.9 10.38 1.18 3.83 3.52 14.91 5.16 24.6 1.65 9.69 3.44 25.21 4.97 51.39l-7.64 7.34c-4.2 4.04-7.96 8.83-8.37 10.65-0.39 1.82 0.6 6.27 2.22 9.91 1.73 3.89 4.9 7.84 7.71 9.6 3.11 1.96 6.17 2.72 8.81 2.21 2.22-0.44 7.03-3.6 10.69-7.04 3.65-3.43 6.64-7.4 6.61-8.81-0.03-1.41-1.13-4.71-2.47-7.34-1.32-2.63-3.88-6.75-5.65-9.18-1.78-2.42-3.7-5.72-4.26-7.34-0.58-1.61-2.01-15.17-3.2-30.1-1.21-14.93-3.5-32.79-5.11-39.65-2.84-11.99-2.85-12.89-0.49-22.76 1.37-5.65 2.04-12.1 1.53-14.31-0.53-2.22-4.19-7.19-8.14-11.02-5.9-5.74-7.71-8.79-10.2-17.25-1.66-5.65-5.4-18.21-8.31-27.9-2.91-9.69-6.83-22.91-8.71-29.37-1.88-6.46-4.21-19.35-5.2-28.63-1.06-9.9-1.36-21.75-0.75-28.64 0.58-6.46 2.59-16.69 4.48-22.76 1.91-6.05 5.96-15.15 9.02-20.2 3.07-5.07 10.31-13.99 16.09-19.82 5.95-6.01 15.23-13.35 21.29-16.88 5.92-3.43 16.05-7.98 22.51-10.13 6.46-2.14 12.57-4.45 13.59-5.14 1.2-0.82 1.54-3.15 0.98-6.75-0.46-3.03-2.73-13.11-5.04-22.39-2.3-9.29-4.64-20.86-5.18-25.7-0.53-4.85-0.24-15.08 0.69-22.76 0.91-7.68 2.97-18.74 4.55-24.6 1.59-5.86 5.29-15.43 8.21-21.29 2.92-5.86 8.11-14.61 11.54-19.46 3.42-4.84 11.48-13.75 17.89-19.82 6.41-6.05 16.59-13.98 22.6-17.59 6.02-3.63 16.54-8.49 23.42-10.82 6.87-2.32 15.12-4.74 18.35-5.36 3.23-0.63 13.8-1.21 23.5-1.29zm196.39 481.23c-1.1 3.66-3.74 7.64-6.61 9.93-2.62 2.1-9.39 6.03-15.05 8.74-5.65 2.68-17.22 7.22-25.69 10.05-8.48 2.84-21.69 6.27-29.37 7.64-13.79 2.44-14.02 2.42-20.19-0.69-3.44-1.73-8-3.14-10.15-3.14q-3.9-0.02-6.65 4.04c-1.53 2.21-2.73 5.52-2.7 7.34 0.01 1.82 1.53 4.3 3.35 5.5 2.87 1.93 4.52 1.96 12.84 0.19 5.25-1.11 17.16-3.81 26.44-6 9.28-2.19 22.17-5.64 28.63-7.68 6.46-2.03 19.02-7.02 27.9-11.09l16.15-7.38c21.79 2.11 22.12 2.05 26.12-2.04 2.82-2.88 4.07-5.66 4.04-8.95-0.03-2.63-1.54-6.87-3.36-9.44-1.82-2.57-5.45-5.55-8.08-6.61-2.63-1.07-5.66-1.93-6.75-1.93-1.09 0-3.57 1.21-5.51 2.71-1.94 1.5-4.34 5.46-5.36 8.81z"/>
</svg>